<?xml version="1.0" encoding="utf-8"?>
<!-- Generator: Adobe Illustrator 22.0.1, SVG Export Plug-In . SVG Version: 6.00 Build 0)  -->
<svg version="1.1" id="katman_1" xmlns="http://www.w3.org/2000/svg" xmlns:xlink="http://www.w3.org/1999/xlink" x="0px" y="0px"
	 viewBox="0 0 105 45" style="enable-background:new 0 0 105 45;" xml:space="preserve">
<style type="text/css">
	.st0{fill:#5F5C5A;}
	.st1{fill:#E2121B;}
	.st2{fill:#878787;}
	.st3{fill:#9D9D9C;}
</style>
<g>
	<g>
		<path class="st0" d="M4.6,27.6H1.2v-1.9H11v1.9H7.5v8.1H4.6V27.6z"/>
		<path class="st0" d="M20,31.5h-4.7v2.4h5.2v1.9h-8.1V25.7h7.8v1.9h-5v2.1H20V31.5z"/>
		<path class="st0" d="M22.5,25.7h2.8v4.4h0.1c0.3-0.4,0.6-0.7,0.9-1.1l2.9-3.3h3.5l-4.2,4.3l4.4,5.8h-3.4l-3.1-4.3l-1.1,1.1v3.3
			h-2.8V25.7z"/>
		<path class="st0" d="M34.1,35.7V25.7h3.4l2.6,3.7c0.8,1.1,1.5,2.3,2.1,3.4h0.1C42,31.5,42,30.1,42,28.6v-2.9h2.6v10.1h-3l-2.7-3.9
			c-0.8-1.1-1.6-2.4-2.2-3.6l-0.1,0c0.1,1.3,0.1,2.7,0.1,4.4v3H34.1z"/>
		<path class="st1" d="M58.7,30.6c0,3.3-2.5,5.3-6.2,5.3c-3.8,0-6-2.3-6-5.1c0-3,2.4-5.3,6.2-5.3C56.6,25.5,58.7,27.8,58.7,30.6z
			 M49.5,30.7c0,2,1.2,3.4,3.1,3.4c1.9,0,3.1-1.5,3.1-3.4c0-1.8-1.1-3.4-3.1-3.4C50.7,27.3,49.5,28.8,49.5,30.7z"/>
		<path class="st0" d="M60.6,25.8c0.9-0.1,2.1-0.2,3.9-0.2c1.8,0,3,0.3,3.9,0.8c0.8,0.5,1.4,1.3,1.4,2.3s-0.4,1.8-1.2,2.4
			c-1,0.7-2.4,1.1-4.1,1.1c-0.4,0-0.7,0-1,0v3.6h-2.8V25.8z M63.4,30.4c0.2,0,0.5,0.1,1,0.1c1.5,0,2.5-0.6,2.5-1.6
			c0-0.9-0.8-1.5-2.2-1.5c-0.6,0-1,0-1.2,0.1V30.4z"/>
		<path class="st0" d="M73.4,33.1l-0.9,2.6h-3l3.9-10.1h3.8l3.9,10.1H78l-1-2.6H73.4z M76.6,31.4l-0.8-2.1c-0.2-0.6-0.5-1.3-0.6-1.9
			h0c-0.2,0.6-0.4,1.4-0.6,1.9l-0.8,2.1H76.6z"/>
		<path class="st0" d="M82.8,25.8c0.9-0.1,2.3-0.2,3.8-0.2c1.9,0,3.2,0.2,4.1,0.8c0.8,0.5,1.2,1.2,1.2,2.1c0,1.3-1.1,2.2-2.2,2.5v0
			c0.9,0.3,1.4,1,1.7,1.9c0.4,1.1,0.8,2.4,1,2.8h-2.9c-0.2-0.3-0.5-1.1-0.9-2.3c-0.3-1.3-0.9-1.6-2.1-1.6h-0.9v4h-2.8V25.8z
			 M85.6,30.1h1.1c1.4,0,2.3-0.6,2.3-1.4c0-0.9-0.8-1.4-2.1-1.4c-0.7,0-1.1,0-1.3,0.1V30.1z"/>
		<path class="st0" d="M93.9,25.7h2.8v4.4h0.1c0.3-0.4,0.6-0.7,0.9-1.1l2.9-3.3h3.5l-4.2,4.3l4.4,5.8H101l-3.1-4.3l-1.1,1.1v3.3
			h-2.8V25.7z"/>
	</g>
	<g>
		<path class="st2" d="M35.5,41.6c0.4,0.2,0.9,0.3,1.5,0.3c0.6,0,1-0.2,1-0.5c0-0.3-0.3-0.5-1-0.7c-1-0.3-1.7-0.7-1.7-1.4
			c0-0.8,0.9-1.4,2.3-1.4c0.7,0,1.2,0.1,1.5,0.2L38.8,39c-0.2-0.1-0.7-0.2-1.3-0.2c-0.6,0-0.9,0.2-0.9,0.5c0,0.3,0.3,0.4,1.1,0.7
			c1.1,0.3,1.6,0.8,1.6,1.4c0,0.8-0.8,1.5-2.4,1.5c-0.7,0-1.4-0.1-1.7-0.3L35.5,41.6z"/>
		<path class="st2" d="M41.7,41.5l-0.4,1.2h-1.4l1.9-4.8h1.8l1.9,4.8h-1.5l-0.5-1.2H41.7z M43.2,40.7l-0.4-1
			c-0.1-0.3-0.2-0.6-0.3-0.9h0c-0.1,0.3-0.2,0.6-0.3,0.9l-0.4,1H43.2z"/>
		<path class="st2" d="M51.3,40.9c0-0.6-0.1-1.3-0.1-2h0c-0.2,0.6-0.4,1.3-0.7,1.9l-0.7,1.9h-1.1l-0.6-1.9c-0.2-0.6-0.4-1.2-0.5-1.9
			h0c0,0.6-0.1,1.4-0.1,2l-0.1,1.8h-1.3l0.4-4.8h1.8l0.6,1.6c0.2,0.6,0.4,1.2,0.5,1.7h0c0.2-0.6,0.4-1.2,0.6-1.7l0.6-1.6h1.8
			l0.3,4.8h-1.3L51.3,40.9z"/>
		<path class="st2" d="M53.8,41.6c0.4,0.2,0.9,0.3,1.5,0.3c0.6,0,1-0.2,1-0.5c0-0.3-0.3-0.5-1-0.7c-1-0.3-1.7-0.7-1.7-1.4
			c0-0.8,0.9-1.4,2.3-1.4c0.7,0,1.2,0.1,1.5,0.2L57.2,39c-0.2-0.1-0.7-0.2-1.3-0.2c-0.6,0-0.9,0.2-0.9,0.5c0,0.3,0.3,0.4,1.1,0.7
			c1.1,0.3,1.6,0.8,1.6,1.4c0,0.8-0.8,1.5-2.4,1.5c-0.7,0-1.4-0.1-1.7-0.3L53.8,41.6z"/>
		<path class="st2" d="M60,37.9v2.8c0,0.8,0.4,1.2,1.1,1.2c0.7,0,1.1-0.4,1.1-1.2v-2.8h1.4v2.7c0,1.5-0.9,2.2-2.5,2.2
			c-1.5,0-2.4-0.7-2.4-2.2v-2.7H60z"/>
		<path class="st2" d="M64.8,42.8v-4.8h1.6l1.3,1.8c0.4,0.5,0.7,1.1,1,1.6h0c-0.1-0.6-0.1-1.3-0.1-2v-1.4h1.3v4.8h-1.4l-1.3-1.9
			c-0.4-0.5-0.8-1.1-1.1-1.7l0,0c0,0.6,0.1,1.3,0.1,2.1v1.4H64.8z"/>
	</g>
	<g>
		<polygon class="st2" points="47,7.6 34.1,11.1 44.3,14.8 		"/>
		<polygon class="st2" points="44.5,15.1 58.6,15.6 50,23.6 		"/>
		<polygon class="st2" points="71.4,10.9 59.6,7.5 59,15.2 		"/>
		<polygon class="st2" points="47.6,7.4 59.3,7.4 54.9,2.4 		"/>
	</g>
	<g>
		<polygon class="st3" points="46.7,7.2 33.8,10.7 44,14.4 		"/>
		<polygon class="st3" points="44.2,14.7 58.3,15.2 49.7,23.2 		"/>
		<polygon class="st3" points="71.1,10.5 59.3,7.1 58.7,14.8 		"/>
		<polygon class="st1" points="47.3,7 59,7 54.6,2 		"/>
	</g>
</g>
</svg>
