<svg xmlns="http://www.w3.org/2000/svg" viewBox="0 0 76.141 37.902"><defs><style>.a{opacity:0.3;}.b{fill:#7a0000;}.c{fill:#fff;}.d{fill:red;}</style></defs><g transform="translate(-1228 -992)"><g class="a" transform="translate(1232.211 996.211)"><path d="M74.371,37.255H31.5L34.111,22.6H76.9Z" transform="translate(-4.969 -3.565)"/><g transform="translate(33.859 22.657)"><path d="M41.8,32.206,40.2,26.9h1.6l.505,2.19c.168.674.253,1.179.421,1.853h.084c.421-.674.758-1.263,1.095-1.853l1.263-2.19h1.6l-3.453,5.306-.59,3.116H41.211Z" transform="translate(-40.2 -26.9)"/><path d="M50.111,26.9H51.88l1.263,8.423h-1.6l-.253-2.274H48.511l-1.095,2.274H45.9Zm-1.095,4.969h2.19l-.084-1.011-.253-2.779h-.084c-.421.927-.842,1.937-1.263,2.779Z" transform="translate(-41.099 -26.9)"/><path d="M57.5,32.206,55.9,26.9h1.6l.505,2.19c.168.674.253,1.179.421,1.853h.084c.421-.674.758-1.263,1.095-1.853l1.263-2.19h1.6l-3.453,5.306-.505,3.116H56.995Z" transform="translate(-42.676 -26.9)"/><path d="M64.616,26.9h1.516l-1.516,8.423H63.1Z" transform="translate(-43.812 -26.9)"/><path d="M68.985,26.9H70.5l1.769,4.717.59,1.769h.084c.084-.842.168-1.937.337-2.864l.674-3.622h1.432L73.87,35.323H72.354l-1.937-4.717-.59-1.769h-.084c-.084.926-.168,1.937-.337,2.864l-.674,3.706H67.3Z" transform="translate(-44.475 -26.9)"/></g><path d="M57.359,19.709H0L3.453,0H60.9Z"/><g transform="translate(5.585 3.538)"><path d="M6.773,10.6a7.36,7.36,0,0,1,6.991-6.4A4.69,4.69,0,0,1,17.3,5.8L15.28,7.822A2.485,2.485,0,0,0,13.427,6.9c-1.432,0-2.864,1.348-3.285,3.538-.421,2.274.421,3.538,2.021,3.538a3.783,3.783,0,0,0,2.358-1.011l1.348,2.021a6.278,6.278,0,0,1-4.3,1.769C8.374,16.834,6.015,14.728,6.773,10.6Z" transform="translate(-6.631 -4.2)"/><path d="M23.227,4.4h3.959l1.6,12.213H25.417L25.249,14H21.88l-1.095,2.611H17.5Zm-.421,7.159H25.08L25,10.717c-.084-1.179-.168-2.611-.253-3.874h-.084c-.505,1.263-1.011,2.7-1.516,3.874Z" transform="translate(-8.345 -4.232)"/><path d="M34.321,4.4h3.285l1.769,5.475.674,2.7h.084c.084-1.348.168-3.116.421-4.632l.59-3.538h3.032L42.07,16.613H38.785L37.1,11.138l-.674-2.7h-.084c-.084,1.348-.168,3.116-.421,4.632l-.59,3.538H32.3Z" transform="translate(-10.679 -4.232)"/><path d="M49.29,4.4h3.2l-1.685,9.518h4.632l-.505,2.7H47.1Z" transform="translate(-13.014 -4.232)"/><path d="M61.106,4.4h3.2L62.2,16.613H59Z" transform="translate(-14.891 -4.232)"/></g></g><g transform="translate(1228 992)"><path class="b" d="M74.371,37.255H31.5L34.111,22.6H76.9Z" transform="translate(-4.969 -3.565)"/><g transform="translate(33.859 22.657)"><path class="c" d="M41.8,32.206,40.2,26.9h1.6l.505,2.19c.168.674.253,1.179.421,1.853h.084c.421-.674.758-1.263,1.095-1.853l1.263-2.19h1.6l-3.453,5.306-.59,3.116H41.211Z" transform="translate(-40.2 -26.9)"/><path class="c" d="M50.111,26.9H51.88l1.263,8.423h-1.6l-.253-2.274H48.511l-1.095,2.274H45.9Zm-1.095,4.969h2.19l-.084-1.011-.253-2.779h-.084c-.421.927-.842,1.937-1.263,2.779Z" transform="translate(-41.099 -26.9)"/><path class="c" d="M57.5,32.206,55.9,26.9h1.6l.505,2.19c.168.674.253,1.179.421,1.853h.084c.421-.674.758-1.263,1.095-1.853l1.263-2.19h1.6l-3.453,5.306-.505,3.116H56.995Z" transform="translate(-42.676 -26.9)"/><path class="c" d="M64.616,26.9h1.516l-1.516,8.423H63.1Z" transform="translate(-43.812 -26.9)"/><path class="c" d="M68.985,26.9H70.5l1.769,4.717.59,1.769h.084c.084-.842.168-1.937.337-2.864l.674-3.622h1.432L73.87,35.323H72.354l-1.937-4.717-.59-1.769h-.084c-.084.926-.168,1.937-.337,2.864l-.674,3.706H67.3Z" transform="translate(-44.475 -26.9)"/></g><path class="d" d="M57.359,19.709H0L3.453,0H60.9Z"/><g transform="translate(5.585 3.538)"><path class="c" d="M6.773,10.6a7.36,7.36,0,0,1,6.991-6.4A4.69,4.69,0,0,1,17.3,5.8L15.28,7.822A2.485,2.485,0,0,0,13.427,6.9c-1.432,0-2.864,1.348-3.285,3.538-.421,2.274.421,3.538,2.021,3.538a3.783,3.783,0,0,0,2.358-1.011l1.348,2.021a6.278,6.278,0,0,1-4.3,1.769C8.374,16.834,6.015,14.728,6.773,10.6Z" transform="translate(-6.631 -4.2)"/><path class="c" d="M23.227,4.4h3.959l1.6,12.213H25.417L25.249,14H21.88l-1.095,2.611H17.5Zm-.421,7.159H25.08L25,10.717c-.084-1.179-.168-2.611-.253-3.874h-.084c-.505,1.263-1.011,2.7-1.516,3.874Z" transform="translate(-8.345 -4.232)"/><path class="c" d="M34.321,4.4h3.285l1.769,5.475.674,2.7h.084c.084-1.348.168-3.116.421-4.632l.59-3.538h3.032L42.07,16.613H38.785L37.1,11.138l-.674-2.7h-.084c-.084,1.348-.168,3.116-.421,4.632l-.59,3.538H32.3Z" transform="translate(-10.679 -4.232)"/><path class="c" d="M49.29,4.4h3.2l-1.685,9.518h4.632l-.505,2.7H47.1Z" transform="translate(-13.014 -4.232)"/><path class="c" d="M61.106,4.4h3.2L62.2,16.613H59Z" transform="translate(-14.891 -4.232)"/></g></g></g></svg>